<?xml version="1.0" encoding="UTF-8"?>
<svg version="1.1" xmlns="http://www.w3.org/2000/svg" width="208" height="208">
<path d="M0 0 C68.64 0 137.28 0 208 0 C208 68.64 208 137.28 208 208 C139.36 208 70.72 208 0 208 C0 139.36 0 70.72 0 0 Z " fill="#F5F6F9" transform="translate(0,0)"/>
<path d="M0 0 C0 7.92 0 15.84 0 24 C-2.43375 24.37125 -4.8675 24.7425 -7.375 25.125 C-18.37772492 27.0648897 -27.07577413 32.05929721 -34 41 C-40.89611066 52.82405031 -43.19477282 64.5417753 -40.3515625 78.08984375 C-39.41681988 80.55452836 -38.32558238 82.72251574 -37 85 C-36.27103516 86.38251953 -36.27103516 86.38251953 -35.52734375 87.79296875 C-30.14110377 97.22843878 -22.49092339 102.94830366 -12.1875 106.34375 C-1.41581776 108.56144928 10.9129832 108.25886456 20.49609375 102.5 C22.04884311 101.46649002 23.58300267 100.4040525 25.08984375 99.3046875 C27 98 27 98 30 97 C31.05806603 95.16077134 31.05806603 95.16077134 32 93 C32.96492021 91.59428059 33.94504024 90.19891325 34.9375 88.8125 C39.99647108 81.2733992 40.98728691 75.1144178 42 66 C49.92 66 57.84 66 66 66 C66 83.46746504 60.67070014 99.25412541 48.19140625 111.90234375 C47.46824219 112.59457031 46.74507813 113.28679687 46 114 C45.41089844 114.62003906 44.82179688 115.24007812 44.21484375 115.87890625 C40.0362793 119.98400143 35.30484665 122.62059338 30.125 125.25 C29.47716553 125.5795166 28.82933105 125.9090332 28.16186523 126.24853516 C19.07320357 130.66028775 10.72760341 132.52162215 0.625 132.375 C-0.38796143 132.36484863 -1.40092285 132.35469727 -2.44458008 132.34423828 C-19.25717194 131.99541249 -32.44180969 126.15797397 -45 115 C-45.63679688 114.44570312 -46.27359375 113.89140625 -46.9296875 113.3203125 C-58.39453188 102.67074595 -65.56319237 87.13890691 -66.21875 71.60546875 C-66.70935668 53.38687256 -62.78893925 36.4273305 -50.5 22.4375 C-49.02427152 20.93411732 -47.52562669 19.45272063 -46 18 C-45.36449219 17.36835937 -44.72898437 16.73671875 -44.07421875 16.0859375 C-31.26975418 4.05027101 -17.30265818 0 0 0 Z " fill="#01684D" transform="translate(102,38)"/>
<path d="M0 0 C5.95936207 4.68457679 11.0076383 10.52856733 12.39648438 18.18603516 C12.57025658 20.45256406 12.60683223 22.66492816 12.5625 24.9375 C12.5471521 26.12436401 12.5471521 26.12436401 12.53149414 27.33520508 C12.30314934 33.60918881 11.12191783 38.12483831 7 43 C6.23816406 43.96292969 6.23816406 43.96292969 5.4609375 44.9453125 C0.19574101 50.90920805 -5.78205112 53.51820842 -13.625 54.4140625 C-23.23313711 54.78211614 -30.0698085 53.44054919 -37.28125 46.9453125 C-44.03415309 39.87433789 -46.11001077 34.33573193 -46.5 24.625 C-46.29468649 16.35497196 -44.50914989 10.83054866 -38.91015625 4.71875 C-28.23347283 -5.35565897 -13.04126386 -8.18816567 0 0 Z " fill="#6FC72E" transform="translate(119,79)"/>
<path d="M0 0 C4.56179047 2.38857698 7.65940186 5.69380373 9.9453125 10.265625 C10.50244382 16.22264445 10.46711436 21.21770899 6.9453125 26.265625 C2.732794 30.39950983 -0.3889566 32.42457461 -6.3046875 32.578125 C-11.39406119 32.52490279 -14.17850624 31.76364224 -18.0546875 28.265625 C-22.58966916 23.24037506 -23.42413739 19.37127738 -23.328125 12.765625 C-22.76759211 7.64075289 -19.69683632 4.58780331 -15.9296875 1.390625 C-11.03394546 -1.85569322 -5.47010593 -1.9550949 0 0 Z " fill="#01684D" transform="translate(146.0546875,50.734375)"/>
</svg>
