<?xml version="1.0" encoding="UTF-8"?>
<svg version="1.1" xmlns="http://www.w3.org/2000/svg" width="31" height="44">
<path d="M0 0 C10.23 0 20.46 0 31 0 C31 14.52 31 29.04 31 44 C20.77 44 10.54 44 0 44 C0 29.48 0 14.96 0 0 Z " fill="#FCFCFC" transform="translate(0,0)"/>
<path d="M0 0 C1.39456452 0.00667256 2.78911118 0.01863093 4.18359375 0.03515625 C4.89451172 0.03966797 5.60542969 0.04417969 6.33789062 0.04882812 C8.09899388 0.06064761 9.86005411 0.07858362 11.62109375 0.09765625 C11.62109375 1.74765625 11.62109375 3.39765625 11.62109375 5.09765625 C4.69109375 4.60265625 4.69109375 4.60265625 -2.37890625 4.09765625 C-2.37890625 9.04765625 -2.37890625 13.99765625 -2.37890625 19.09765625 C2.24109375 18.76765625 6.86109375 18.43765625 11.62109375 18.09765625 C11.62109375 19.74765625 11.62109375 21.39765625 11.62109375 23.09765625 C10.62109375 24.09765625 10.62109375 24.09765625 7.49609375 24.23046875 C6.21734375 24.22789063 4.93859375 24.2253125 3.62109375 24.22265625 C2.34234375 24.22523437 1.06359375 24.2278125 -0.25390625 24.23046875 C-3.37890625 24.09765625 -3.37890625 24.09765625 -4.37890625 23.09765625 C-4.47807195 21.47508081 -4.50970402 19.84825794 -4.51171875 18.22265625 C-4.51300781 17.2378125 -4.51429688 16.25296875 -4.515625 15.23828125 C-4.51175781 14.201875 -4.50789062 13.16546875 -4.50390625 12.09765625 C-4.50970703 10.54304688 -4.50970703 10.54304688 -4.515625 8.95703125 C-4.51433594 7.9721875 -4.51304687 6.98734375 -4.51171875 5.97265625 C-4.51059082 5.06257812 -4.50946289 4.1525 -4.50830078 3.21484375 C-4.29142148 -0.33379268 -3.67677908 0.10626529 0 0 Z " fill="#575858" transform="translate(9.37890625,7.90234375)"/>
<path d="M0 0 C3.375 -0.125 3.375 -0.125 7 0 C9 2 9 2 9.1953125 4.1640625 C9.13020833 6.44270833 9.06510417 8.72135417 9 11 C6.03 11 3.06 11 0 11 C0 7.37 0 3.74 0 0 Z " fill="#171819" transform="translate(15,14)"/>
<path d="M0 0 C3.96 0 7.92 0 12 0 C12 0.33 12 0.66 12 1 C8.7 1 5.4 1 2 1 C2 1.99 2 2.98 2 4 C3.65 4 5.3 4 7 4 C7 6.64 7 9.28 7 12 C5.35 12 3.7 12 2 12 C2 12.99 2 13.98 2 15 C1.34 15 0.68 15 0 15 C0 10.05 0 5.1 0 0 Z " fill="#D6D6D6" transform="translate(7,12)"/>
<path d="M0 0 C4.62 0 9.24 0 14 0 C14 1.65 14 3.3 14 5 C13.34 5 12.68 5 12 5 C12 4.34 12 3.68 12 3 C8.04 3 4.08 3 0 3 C0 2.01 0 1.02 0 0 Z " fill="#202122" transform="translate(7,8)"/>
<path d="M0 0 C3.375 -0.125 3.375 -0.125 7 0 C9 2 9 2 9.1953125 4.1640625 C9.17210937 4.97617187 9.14890625 5.78828125 9.125 6.625 C9.10695313 7.44226563 9.08890625 8.25953125 9.0703125 9.1015625 C9.03550781 10.04128906 9.03550781 10.04128906 9 11 C8.67 11 8.34 11 8 11 C8 8.69 8 6.38 8 4 C7.01 4 6.02 4 5 4 C5 3.01 5 2.02 5 1 C3.68 1 2.36 1 1 1 C1 4.3 1 7.6 1 11 C0.67 11 0.34 11 0 11 C0 7.37 0 3.74 0 0 Z " fill="#777778" transform="translate(15,14)"/>
<path d="M0 0 C0.66 0 1.32 0 2 0 C2 1.65 2 3.3 2 5 C-2.62 5 -7.24 5 -12 5 C-12 4.34 -12 3.68 -12 3 C-8.04 3 -4.08 3 0 3 C0 2.01 0 1.02 0 0 Z " fill="#252627" transform="translate(19,26)"/>
<path d="M0 0 C1.32 0 2.64 0 4 0 C4 2.64 4 5.28 4 8 C2.68 8 1.36 8 0 8 C0 5.36 0 2.72 0 0 Z " fill="#515253" transform="translate(10,16)"/>
<path d="M0 0 C3.3 0 6.6 0 10 0 C8.68 0.33 7.36 0.66 6 1 C6 4.3 6 7.6 6 11 C5.67 11 5.34 11 5 11 C5 8.36 5 5.72 5 3 C3.35 3 1.7 3 0 3 C0 2.01 0 1.02 0 0 Z " fill="#EAEAEA" transform="translate(9,13)"/>
<path d="M0 0 C1.32 0 2.64 0 4 0 C4 1.32 4 2.64 4 4 C2.35 4 0.7 4 -1 4 C-0.67 2.68 -0.34 1.36 0 0 Z " fill="#676868" transform="translate(18,19)"/>
</svg>
