<?xml version="1.0" encoding="UTF-8"?>
<svg version="1.1" xmlns="http://www.w3.org/2000/svg" width="40" height="31">
<path d="M0 0 C13.2 0 26.4 0 40 0 C40 10.23 40 20.46 40 31 C26.8 31 13.6 31 0 31 C0 20.77 0 10.54 0 0 Z " fill="#FDFDFD" transform="translate(0,0)"/>
<path d="M0 0 C1.27423828 -0.00193359 1.27423828 -0.00193359 2.57421875 -0.00390625 C3.91419922 0.00189453 3.91419922 0.00189453 5.28125 0.0078125 C6.17457031 0.00394531 7.06789063 0.00007812 7.98828125 -0.00390625 C8.83777344 -0.00261719 9.68726563 -0.00132812 10.5625 0 C11.34689453 0.00112793 12.13128906 0.00225586 12.93945312 0.00341797 C14.78125 0.1328125 14.78125 0.1328125 15.78125 1.1328125 C15.88106214 3.8101263 15.92004875 6.45585425 15.90625 9.1328125 C15.91205078 10.25816406 15.91205078 10.25816406 15.91796875 11.40625 C15.90786053 17.00620197 15.90786053 17.00620197 14.78125 18.1328125 C13.37776265 18.23141381 11.96944523 18.26360187 10.5625 18.265625 C9.28826172 18.26755859 9.28826172 18.26755859 7.98828125 18.26953125 C6.64830078 18.26373047 6.64830078 18.26373047 5.28125 18.2578125 C4.38792969 18.26167969 3.49460937 18.26554687 2.57421875 18.26953125 C1.72472656 18.26824219 0.87523437 18.26695313 0 18.265625 C-0.78439453 18.26449707 -1.56878906 18.26336914 -2.37695312 18.26220703 C-4.21875 18.1328125 -4.21875 18.1328125 -5.21875 17.1328125 C-5.31856214 14.4554987 -5.35754875 11.80977075 -5.34375 9.1328125 C-5.34761719 8.38257813 -5.35148438 7.63234375 -5.35546875 6.859375 C-5.34310108 0.00768318 -5.34310108 0.00768318 0 0 Z " fill="#1F2021" transform="translate(13.21875,6.8671875)"/>
<path d="M0 0 C5.61 0 11.22 0 17 0 C17 2.31 17 4.62 17 7 C11.39 7 5.78 7 0 7 C0 4.69 0 2.38 0 0 Z " fill="#ECECEC" transform="translate(10,16)"/>
<path d="M0 0 C1.18613892 0.00785522 1.18613892 0.00785522 2.39624023 0.01586914 C3.67724609 0.02070312 3.67724609 0.02070312 4.98413086 0.02563477 C5.88196289 0.03401367 6.77979492 0.04239258 7.70483398 0.05102539 C8.6065332 0.05553711 9.50823242 0.06004883 10.43725586 0.06469727 C12.67234712 0.07652315 14.90730835 0.09300319 17.14233398 0.11352539 C17.47233398 1.10352539 17.80233398 2.09352539 18.14233398 3.11352539 C17.81233398 3.77352539 17.48233398 4.43352539 17.14233398 5.11352539 C11.20233398 5.11352539 5.26233398 5.11352539 -0.85766602 5.11352539 C-0.85766602 4.12352539 -0.85766602 3.13352539 -0.85766602 2.11352539 C-1.51766602 1.78352539 -2.17766602 1.45352539 -2.85766602 1.11352539 C-1.85766602 0.11352539 -1.85766602 0.11352539 0 0 Z " fill="#888989" transform="translate(10.857666015625,6.886474609375)"/>
</svg>
