<?xml version="1.0" encoding="UTF-8"?>
<svg version="1.1" xmlns="http://www.w3.org/2000/svg" width="34" height="32">
<path d="M0 0 C11.22 0 22.44 0 34 0 C34 10.56 34 21.12 34 32 C22.78 32 11.56 32 0 32 C0 21.44 0 10.88 0 0 Z " fill="#FAFAFA" transform="translate(0,0)"/>
<path d="M0 0 C0.66 0.33 1.32 0.66 2 1 C2 1.66 2 2.32 2 3 C1.04287109 3.07347656 1.04287109 3.07347656 0.06640625 3.1484375 C-0.75988281 3.22320312 -1.58617187 3.29796875 -2.4375 3.375 C-3.67306641 3.47941406 -3.67306641 3.47941406 -4.93359375 3.5859375 C-5.95646484 3.79089844 -5.95646484 3.79089844 -7 4 C-7.33 4.66 -7.66 5.32 -8 6 C-6.35 6 -4.7 6 -3 6 C-3 6.66 -3 7.32 -3 8 C-5.31 8 -7.62 8 -10 8 C-10 8.99 -10 9.98 -10 11 C-7.69 11 -5.38 11 -3 11 C-3 11.66 -3 12.32 -3 13 C-4.65 13.33 -6.3 13.66 -8 14 C-6.99163938 15.23267348 -6.99163938 15.23267348 -4.93359375 15.09765625 C-4.10988281 15.08605469 -3.28617188 15.07445312 -2.4375 15.0625 C-1.61121094 15.05347656 -0.78492188 15.04445313 0.06640625 15.03515625 C0.70449219 15.02355469 1.34257812 15.01195312 2 15 C2 16.32 2 17.64 2 19 C-6.78723404 19.44680851 -6.78723404 19.44680851 -11 16 C-11.33 15.01 -11.66 14.02 -12 13 C-13.32 13 -14.64 13 -16 13 C-16 12.34 -16 11.68 -16 11 C-15.01 11 -14.02 11 -13 11 C-13 10.34 -13 9.68 -13 9 C-13.99 9 -14.98 9 -16 9 C-16 8.01 -16 7.02 -16 6 C-14.68 6 -13.36 6 -12 6 C-11.7525 5.38125 -11.505 4.7625 -11.25 4.125 C-8.60449821 -0.37235304 -4.88201713 -0.31839242 0 0 Z " fill="#454546" transform="translate(23,5)"/>
<path d="M0 0 C0.33 0.66 0.66 1.32 1 2 C3.64 2 6.28 2 9 2 C9 2.66 9 3.32 9 4 C7.35 4.33 5.7 4.66 4 5 C5.00836062 6.23267348 5.00836062 6.23267348 7.06640625 6.09765625 C7.89011719 6.08605469 8.71382812 6.07445312 9.5625 6.0625 C10.38878906 6.05347656 11.21507812 6.04445313 12.06640625 6.03515625 C13.02353516 6.01775391 13.02353516 6.01775391 14 6 C14 7.32 14 8.64 14 10 C5.21276596 10.44680851 5.21276596 10.44680851 1 7 C0.67 6.01 0.34 5.02 0 4 C-1.32 4 -2.64 4 -4 4 C-4 3.34 -4 2.68 -4 2 C-2.68 2 -1.36 2 0 2 C0 1.34 0 0.68 0 0 Z " fill="#2D2E2F" transform="translate(11,14)"/>
<path d="M0 0 C0 1.32 0 2.64 0 4 C-7.75 4.125 -7.75 4.125 -10 3 C-10 2.34 -10 1.68 -10 1 C-2.25 0 -2.25 0 0 0 Z " fill="#3D3E3F" transform="translate(25,20)"/>
<path d="M0 0 C5.75 -0.125 5.75 -0.125 8 1 C8 1.66 8 2.32 8 3 C5.36 2.67 2.72 2.34 0 2 C0 1.34 0 0.68 0 0 Z " fill="#202122" transform="translate(17,5)"/>
</svg>
