<?xml version="1.0" encoding="UTF-8"?>
<svg version="1.1" xmlns="http://www.w3.org/2000/svg" width="30" height="31">
<path d="M0 0 C9.9 0 19.8 0 30 0 C30 10.23 30 20.46 30 31 C20.1 31 10.2 31 0 31 C0 20.77 0 10.54 0 0 Z " fill="#E8EBF2" transform="translate(0,0)"/>
<path d="M0 0 C0.66 0 1.32 0 2 0 C2 0.66 2 1.32 2 2 C2.78375 2.268125 3.5675 2.53625 4.375 2.8125 C7 4 7 4 9 7 C8.625 9.6875 8.625 9.6875 8 12 C7.67 12 7.34 12 7 12 C6.731875 11.05125 6.46375 10.1025 6.1875 9.125 C5.25013412 5.74732727 5.25013412 5.74732727 2 4 C2 4.66 2 5.32 2 6 C0.68 5.34 -0.64 4.68 -2 4 C-1.34 2.68 -0.68 1.36 0 0 Z " fill="#515356" transform="translate(14,5)"/>
<path d="M0 0 C0.33 0 0.66 0 1 0 C1.309375 1.423125 1.309375 1.423125 1.625 2.875 C2.70833333 6.29166667 2.70833333 6.29166667 6.125 7.375 C7.07375 7.58125 8.0225 7.7875 9 8 C8.67 9.32 8.34 10.64 8 12 C4.43251393 11.12794785 2.45453499 10.5425095 0.0625 7.6875 C-1.15757314 4.60143265 -0.9811923 3.12197549 0 0 Z " fill="#494A4D" transform="translate(9,11)"/>
</svg>
