<?xml version="1.0" encoding="UTF-8"?>
<svg version="1.1" xmlns="http://www.w3.org/2000/svg" width="203" height="213">
<path d="M0 0 C66.99 0 133.98 0 203 0 C203 70.29 203 140.58 203 213 C136.01 213 69.02 213 0 213 C0 142.71 0 72.42 0 0 Z " fill="#F5F6F9" transform="translate(0,0)"/>
<path d="M0 0 C4.12550028 -0.17600952 8.24951709 -0.3033929 12.37792969 -0.38795471 C13.77870798 -0.42323806 15.17923057 -0.47126117 16.57910156 -0.53279114 C29.69283463 -1.09429883 29.69283463 -1.09429883 34.8046875 3.31054688 C37.5889855 6.25656311 39.74608783 9.51393327 41.76953125 13.01611328 C43.81376673 16.31203739 46.3994376 19.13524817 49 22 C52.88619784 18.86931458 56.22122063 15.87067543 59.26953125 11.9140625 C68.17237267 0.85387725 68.17237267 0.85387725 75.27880859 -0.73144531 C83.04190774 -1.4050099 90.13195213 -0.65567066 98 0 C98 9.57 98 19.14 98 29 C94.679375 28.835 91.35875 28.67 87.9375 28.5 C81.60279116 28.53835815 76.50109441 28.9786875 71.5859375 33.2421875 C68.32959995 36.58733053 65.45598892 40.21893547 62.63427734 43.93359375 C60.20618091 47.00371747 57.45210872 49.67679813 54.625 52.375 C51.39519948 55.38588985 51.39519948 55.38588985 49 59 C48.34 59 47.68 59 47 59 C45.66796875 57.4609375 45.66796875 57.4609375 44.1875 55.375 C42.25422217 52.69596143 40.29176641 50.11894196 38.125 47.625 C36 45 36 45 36 43 C35.01 42.67 34.02 42.34 33 42 C31.5 40.29296875 31.5 40.29296875 30 38.1875 C29.505 37.50042969 29.01 36.81335938 28.5 36.10546875 C28.005 35.41066406 27.51 34.71585938 27 34 C26.01 32.68 25.02 31.36 24 30 C23.67 51.12 23.34 72.24 23 94 C15.74 94 8.48 94 1 94 C-0.86687577 92.13312423 -0.12006498 89.45718552 -0.12442017 86.97367859 C-0.12082489 86.10765518 -0.11722961 85.24163177 -0.11352539 84.34936523 C-0.11367142 83.44213715 -0.11381744 82.53490906 -0.1139679 81.60018921 C-0.11326841 78.58630015 -0.10547434 75.57247207 -0.09765625 72.55859375 C-0.0957922 70.47494033 -0.09436824 68.39128646 -0.09336853 66.30763245 C-0.08954234 60.81176554 -0.0797112 55.31592487 -0.06866455 49.82006836 C-0.0584526 44.21663773 -0.05387137 38.61320287 -0.04882812 33.00976562 C-0.03808902 22.00649886 -0.02101139 11.00325161 0 0 Z " fill="#191B1C" transform="translate(52,56)"/>
<path d="M0 0 C5.7208816 3.08047471 10.00772321 6.45483788 12.25 12.75 C13.35008252 19.56162205 12.17707743 25.09149546 8.25 30.75 C6.67110689 32.58831464 5.06779168 34.13418517 3.25 35.75 C3.559375 36.36875 3.86875 36.9875 4.1875 37.625 C6.25343981 41.75687962 7.25516583 45.12399897 6.25 49.75 C4.23296645 52.88451824 1.67063083 55.35405626 -1 57.9375 C-2.4682235 59.42110786 -3.93566331 60.90549167 -5.40234375 62.390625 C-6.50231689 63.48600586 -6.50231689 63.48600586 -7.62451172 64.60351562 C-11.21488653 68.22935704 -14.61379363 72.02648447 -18.03027344 75.81518555 C-23.23527618 81.51293104 -23.23527618 81.51293104 -27.5703125 82.19140625 C-31.75390863 81.61063676 -33.77189576 79.57805269 -36.625 76.6875 C-37.68294612 75.66599551 -38.74153971 74.64516115 -39.80078125 73.625 C-40.30818848 73.12742187 -40.8155957 72.62984375 -41.33837891 72.1171875 C-43.10619678 70.40501522 -44.94472691 68.78954867 -46.8125 67.1875 C-67.25056687 49.44315324 -67.25056687 49.44315324 -69.75 43.75 C-69.73171469 37.45071098 -66.1834356 34.44474218 -62 30.25 C-60.63481882 28.84172514 -59.27024761 27.43285875 -57.90625 26.0234375 C-57.21402344 25.31541992 -56.52179688 24.60740234 -55.80859375 23.87792969 C-52.08210251 20.02592569 -48.48451387 16.05402726 -44.87597656 12.09179688 C-42.60300689 9.62416849 -40.55647196 7.6209813 -37.75 5.75 C-33.5548852 5.82768731 -31.45072651 6.09042546 -28.35546875 9.00390625 C-27.49566406 9.91011719 -26.63585937 10.81632812 -25.75 11.75 C-22.12046302 15.12454709 -18.43519514 18.43642118 -14.75 21.75 C-13.97398437 22.45382813 -13.19796875 23.15765625 -12.3984375 23.8828125 C-11.71007812 24.49898437 -11.02171875 25.11515625 -10.3125 25.75 C-9.71566406 26.28625 -9.11882812 26.8225 -8.50390625 27.375 C-6.67596242 28.80804282 -4.85785287 29.78641012 -2.75 30.75 C1.65702508 25.93637439 3.94239018 22.4570392 3.65625 15.828125 C3.19552191 13.47132359 2.51836458 11.78966737 1.25 9.75 C-2.09048103 7.52301265 -3.28285581 7.4788079 -7.1875 7.5 C-8.13496094 7.49484375 -9.08242187 7.4896875 -10.05859375 7.484375 C-12.77552453 7.75251911 -14.42465583 8.36468858 -16.75 9.75 C-18.07 8.43 -19.39 7.11 -20.75 5.75 C-19.737668 2.81423721 -18.78642058 1.77487259 -16.1875 0 C-10.44324962 -2.08881832 -5.77993608 -1.92664536 0 0 Z " fill="#1D1E1F" transform="translate(159.75,96.25)"/>
<path d="M0 0 C3.80715666 1.77132973 6.0834708 3.94781828 9 7 C13.17603879 11.28862808 17.47379984 15.32697734 22.01171875 19.23046875 C24.61428754 21.54670384 27.04063448 24.01129992 29.45703125 26.51953125 C31.13707372 28.21835505 31.13707372 28.21835505 34 30 C33.54725561 34.39056767 30.60451487 36.91539617 27.6875 39.9375 C26.60264595 41.08573097 25.51801755 42.23417518 24.43359375 43.3828125 C23.87140137 43.97352539 23.30920898 44.56423828 22.72998047 45.17285156 C19.87243908 48.19089274 17.06346028 51.25343029 14.25 54.3125 C13.23460152 55.41296946 12.21899763 56.51324946 11.203125 57.61328125 C10.47609375 58.40089844 9.7490625 59.18851563 9 60 C4.87822668 57.77201442 1.93387897 55.11383118 -1.3125 51.75 C-5.11746678 47.8527916 -9.01549927 44.15939919 -13.15625 40.62109375 C-16.25411275 37.89733731 -19.11578434 34.94602028 -22 32 C-23.33215182 30.6654862 -24.6652166 29.33188169 -26 28 C-25.60321045 27.5781543 -25.2064209 27.15630859 -24.79760742 26.72167969 C-16.47293061 17.86732715 -8.18450711 8.98424065 0 0 Z " fill="#F2F3F6" transform="translate(124,110)"/>
<path d="M0 0 C2.5 1.5 2.5 1.5 4 4 C4.31488347 7.91242708 3.86780007 10.97149621 1.3125 14 C-1.58554547 15.25320885 -3.87538839 15.2130417 -7 15 C-7 14.34 -7 13.68 -7 13 C-7.99 12.67 -8.98 12.34 -10 12 C-11.42041821 9.15916359 -11.31452272 7.14522722 -11 4 C-8.05899778 -0.47032338 -5.13105401 -0.73300772 0 0 Z " fill="#1B1B1D" transform="translate(132,133)"/>
</svg>
