<?xml version="1.0" encoding="UTF-8"?>
<svg version="1.1" xmlns="http://www.w3.org/2000/svg" width="40" height="24">
<path d="M0 0 C13.2 0 26.4 0 40 0 C40 7.92 40 15.84 40 24 C26.8 24 13.6 24 0 24 C0 16.08 0 8.16 0 0 Z " fill="#FEFEFE" transform="translate(0,0)"/>
<path d="M0 0 C6.27 0 12.54 0 19 0 C19 0.66 19 1.32 19 2 C19.66 2 20.32 2 21 2 C21 6.29 21 10.58 21 15 C18.65147472 16.17426264 17.26225935 16.11508173 14.6484375 16.09765625 C13.79765625 16.09443359 12.946875 16.09121094 12.0703125 16.08789062 C11.18085938 16.07951172 10.29140625 16.07113281 9.375 16.0625 C8.4778125 16.05798828 7.580625 16.05347656 6.65625 16.04882812 C4.43743352 16.03702591 2.21874982 16.02056155 0 16 C-1.36538938 13.26922124 -1.13231826 11.04439633 -1.125 8 C-1.12757813 6.9275 -1.13015625 5.855 -1.1328125 4.75 C-1 2 -1 2 0 0 Z " fill="#4B4B4B" transform="translate(8,3)"/>
<path d="M0 0 C6.27 0 12.54 0 19 0 C19 0.66 19 1.32 19 2 C19.66 2 20.32 2 21 2 C21 6.29 21 10.58 21 15 C18.65147472 16.17426264 17.26225935 16.11508173 14.6484375 16.09765625 C13.79765625 16.09443359 12.946875 16.09121094 12.0703125 16.08789062 C11.18085938 16.07951172 10.29140625 16.07113281 9.375 16.0625 C8.4778125 16.05798828 7.580625 16.05347656 6.65625 16.04882812 C4.43743352 16.03702591 2.21874982 16.02056155 0 16 C-1.36538938 13.26922124 -1.13231826 11.04439633 -1.125 8 C-1.12757813 6.9275 -1.13015625 5.855 -1.1328125 4.75 C-1 2 -1 2 0 0 Z M1 1 C2.32 2.65 3.64 4.3 5 6 C5.66 6 6.32 6 7 6 C7 6.66 7 7.32 7 8 C7.33 8.33 7.66 8.66 8 9 C7.401875 9.2475 6.80375 9.495 6.1875 9.75 C3.5284096 11.07752171 3.5284096 11.07752171 1 15 C6.61 15 12.22 15 18 15 C18 14.34 18 13.68 18 13 C18.66 13 19.32 13 20 13 C20 9.7 20 6.4 20 3 C19.34 3 18.68 3 18 3 C18 2.34 18 1.68 18 1 C12.39 1 6.78 1 1 1 Z " fill="#999999" transform="translate(8,3)"/>
<path d="M0 0 C3.96190947 0.70748383 5.7168861 1.75754931 8.5 4.625 C8.5 5.285 8.5 5.945 8.5 6.625 C2.89 6.625 -2.72 6.625 -8.5 6.625 C-3.5 0.625 -3.5 0.625 0 0 Z " fill="#111111" transform="translate(17.5,11.375)"/>
<path d="M0 0 C4.62 0 9.24 0 14 0 C12.02 2.31 10.04 4.62 8 7 C6.68 6.67 5.36 6.34 4 6 C4 5.34 4 4.68 4 4 C2.68 3.34 1.36 2.68 0 2 C0 1.34 0 0.68 0 0 Z " fill="#070707" transform="translate(11,5)"/>
<path d="M0 0 C4.5 2.25 4.5 2.25 6 6 C4.71034824 7.37562854 3.37310707 8.70766393 2 10 C1.34 10 0.68 10 0 10 C0 6.7 0 3.4 0 0 Z " fill="#131313" transform="translate(7,6)"/>
<path d="M0 0 C0 2.64 0 5.28 0 8 C-1.32 7.34 -2.64 6.68 -4 6 C-4 4.68 -4 3.36 -4 2 C-1 0 -1 0 0 0 Z " fill="#050505" transform="translate(27,7)"/>
</svg>
