<?xml version="1.0" encoding="UTF-8"?>
<svg version="1.1" xmlns="http://www.w3.org/2000/svg" width="31" height="29">
<path d="M0 0 C10.23 0 20.46 0 31 0 C31 9.57 31 19.14 31 29 C20.77 29 10.54 29 0 29 C0 19.43 0 9.86 0 0 Z " fill="#E9ECF2" transform="translate(0,0)"/>
<path d="M0 0 C8.93617021 -0.59574468 8.93617021 -0.59574468 13.125 1.75 C16.05095297 6.82165182 15.31831373 11.2066901 15 17 C10.05 17 5.1 17 0 17 C0 11.39 0 5.78 0 0 Z " fill="#262729" transform="translate(8,5)"/>
<path d="M0 0 C2 1.25 2 1.25 4 3 C4 4.32 4 5.64 4 7 C2.35 6.67 0.7 6.34 -1 6 C-1.042721 4.33388095 -1.04063832 2.66617115 -1 1 C-0.67 0.67 -0.34 0.34 0 0 Z " fill="#737579" transform="translate(17,5)"/>
<path d="M0 0 C0.99 0 1.98 0 3 0 C3 2.31 3 4.62 3 7 C2.01 7 1.02 7 0 7 C-0.38133299 5.0085944 -0.71325582 3.00720923 -1 1 C-0.67 0.67 -0.34 0.34 0 0 Z " fill="#9EA0A5" transform="translate(14,13)"/>
</svg>
