<?xml version="1.0" encoding="UTF-8"?>
<svg version="1.1" xmlns="http://www.w3.org/2000/svg" width="33" height="29">
<path d="M0 0 C10.89 0 21.78 0 33 0 C33 9.57 33 19.14 33 29 C22.11 29 11.22 29 0 29 C0 19.43 0 9.86 0 0 Z " fill="#FBFBFB" transform="translate(0,0)"/>
<path d="M0 0 C1.65 0 3.3 0 5 0 C5 1.65 5 3.3 5 5 C4.401875 5.103125 3.80375 5.20625 3.1875 5.3125 C0.9080042 5.80707982 0.9080042 5.80707982 -0.3125 7.625 C-0.869375 8.07875 -1.42625 8.5325 -2 9 C-3.134375 8.814375 -4.26875 8.62875 -5.4375 8.4375 C-6.613125 8.293125 -7.78875 8.14875 -9 8 C-11.33454661 9.83358335 -11.33454661 9.83358335 -13 12 C-13.66 12 -14.32 12 -15 12 C-14.61094382 9.27660672 -13.93262433 7.91096786 -12.25 5.6875 C-10 4 -10 4 -7.4375 4.25 C-6.633125 4.4975 -5.82875 4.745 -5 5 C-4.01 5 -3.02 5 -2 5 C-0.58614089 2.61837991 -0.58614089 2.61837991 0 0 Z " fill="#272829" transform="translate(22,8)"/>
<path d="M0 0 C2.3125 0.875 2.3125 0.875 3.3125 2.875 C2.384375 3.143125 1.45625 3.41125 0.5 3.6875 C-2.5186641 4.81210035 -3.6030143 5.58206573 -5.6875 7.875 C-6.3475 7.875 -7.0075 7.875 -7.6875 7.875 C-7.29844382 5.15160672 -6.62012433 3.78596786 -4.9375 1.5625 C-2.6875 -0.125 -2.6875 -0.125 0 0 Z " fill="#575858" transform="translate(14.6875,12.125)"/>
</svg>
