<?xml version="1.0" encoding="UTF-8"?>
<svg version="1.1" xmlns="http://www.w3.org/2000/svg" width="35" height="41">
<path d="M0 0 C11.55 0 23.1 0 35 0 C35 13.53 35 27.06 35 41 C23.45 41 11.9 41 0 41 C0 27.47 0 13.94 0 0 Z " fill="#FBFBFB" transform="translate(0,0)"/>
<path d="M0 0 C1.32 0.33 2.64 0.66 4 1 C4 1.66 4 2.32 4 3 C4.804375 2.979375 5.60875 2.95875 6.4375 2.9375 C9 3 9 3 10 4 C10.04063832 5.66617115 10.042721 7.33388095 10 9 C10.66 9 11.32 9 12 9 C12 10.32 12 11.64 12 13 C11.34 13 10.68 13 10 13 C10.020625 13.804375 10.04125 14.60875 10.0625 15.4375 C10 18 10 18 9 19 C7.33382885 19.04063832 5.66611905 19.042721 4 19 C4 19.99 4 20.98 4 22 C2.35 22 0.7 22 -1 22 C-1 21.01 -1 20.02 -1 19 C-2.65 19 -4.3 19 -6 19 C-6.12375 18.195625 -6.2475 17.39125 -6.375 16.5625 C-6.684375 15.2940625 -6.684375 15.2940625 -7 14 C-7.66 13.67 -8.32 13.34 -9 13 C-9 11.68 -9 10.36 -9 9 C-8.34 9 -7.68 9 -7 9 C-7.0309375 7.7934375 -7.0309375 7.7934375 -7.0625 6.5625 C-7 4 -7 4 -6 3 C-4.33382885 2.95936168 -2.66611905 2.957279 -1 3 C-0.67 2.01 -0.34 1.02 0 0 Z " fill="#272829" transform="translate(17,9)"/>
<path d="M0 0 C1.65 0 3.3 0 5 0 C5 1.32 5 2.64 5 4 C3.35 4 1.7 4 0 4 C0 2.68 0 1.36 0 0 Z " fill="#E2E2E2" transform="translate(16,18)"/>
</svg>
