<svg width="292" height="56" viewBox="0 0 292 56" fill="none" xmlns="http://www.w3.org/2000/svg">
<g clip-path="url(#clip0_48874_3476)">
<path d="M148.976 42.4484C149.332 40.8238 151.637 31.301 153.99 20.595C156.014 11.4104 157.41 5.68172 157.907 1.4087L158.338 1.03305L164.167 0.0187988L164.439 0.394449L162.94 6.33911L160.484 16.6225C162.724 15.3923 164.87 14.209 168.291 14.209C173.586 14.209 178.019 17.7964 178.019 24.5487C178.019 27.2816 177.166 32.428 173.577 36.5507C168.769 42.0728 162.837 42.4391 155.939 42.7114H152.996L149.257 42.7677L148.976 42.4484ZM155.498 38.5323C158.526 38.6732 162.987 38.5886 166.454 36.2314C170.409 33.4986 172.283 28.7278 172.283 25.3C172.283 20.426 169.341 18.5477 165.92 18.5477C163.193 18.5477 161.271 19.731 159.556 20.8016C159.566 20.8016 155.836 37.2175 155.498 38.5323Z" fill="#50AE30"/>
<path d="M206.678 25.6757C204.804 33.9306 204.429 35.9591 203.361 42.3358L202.986 42.7114L197.962 42.8241L197.691 42.4485L198.066 40.3073C197.156 41.0586 194.804 43.0401 190.259 43.0401C184.804 43.0401 180.371 39.1803 180.371 32.4844C180.371 28.2489 182.405 23.6472 184.645 20.9707C189.621 15.1294 196.519 14.8101 201.43 14.8101L208.806 14.8664L209.078 15.2984L206.678 25.6757ZM202.714 18.8765C201.908 18.8765 201.111 18.8201 200.305 18.8201C198.543 18.8201 195.067 18.9234 191.908 21.074C186.294 24.9338 186.182 31.8458 186.182 32.1087C186.182 34.6819 187.569 38.8047 192.433 38.8047C193.876 38.8047 196.266 38.4666 198.853 36.1751L202.714 18.8765Z" fill="#50AE30"/>
<path d="M289.591 25.6757C287.717 33.9306 287.342 35.9591 286.274 42.3358L285.899 42.7114L280.876 42.8241L280.604 42.4485L280.979 40.3073C280.07 41.0586 277.717 43.0401 273.172 43.0401C267.717 43.0401 263.285 39.1803 263.285 32.4844C263.285 28.2489 265.318 23.6472 267.558 20.9707C272.535 15.1294 279.432 14.8101 284.343 14.8101L291.719 14.8664L291.991 15.2984L289.591 25.6757ZM285.636 18.8765C284.83 18.8765 284.034 18.8201 283.228 18.8201C281.466 18.8201 277.989 18.9234 274.831 21.074C269.217 24.9338 269.104 31.8458 269.104 32.1087C269.104 34.6819 270.492 38.8047 275.356 38.8047C276.799 38.8047 279.189 38.4666 281.775 36.1751L285.636 18.8765Z" fill="#50AE30"/>
<path d="M233.154 42.3921L232.723 42.7114L227.268 42.8711L227.053 42.4954C227.84 38.8892 231.13 26.8026 231.167 23.0461C231.205 19.8343 229.19 18.7637 226.678 18.7637C223.36 18.7637 221.167 20.426 219.565 21.5999C217.587 30.5967 216.941 33.4422 215.235 42.3827L214.86 42.702L209.406 42.8617L209.143 42.486C209.143 42.486 210.764 35.9215 212.226 29.1035C213.37 23.7693 214.316 19.3648 214.757 15.6928L215.132 15.3171C217.643 14.9978 218.234 14.8851 220.802 14.3498L221.064 14.7255L220.314 17.4583C222.395 16.0684 225.075 14.1902 229.508 14.1902C231.27 14.1902 237.043 14.6691 237.043 21.1585C237.053 25.0559 233.679 38.6074 233.154 42.3921Z" fill="#50AE30"/>
<path d="M253.575 26.4176L261.869 42.223L261.551 42.655L255.618 42.8147L255.187 42.4954C253.8 38.7295 247.755 26.9059 247.755 26.9059C246.209 33.7146 245.89 35.3205 244.55 42.3921L244.175 42.7114L238.777 42.8241L238.561 42.5048C238.561 42.5048 241.411 30.6248 243.885 19.6277C245.037 14.4907 246.837 6.34847 247.54 1.40867L247.915 1.08937L253.744 0.12207L254.063 0.49772C252.985 4.19787 247.915 26.164 247.915 26.164C251.748 22.8019 258.13 16.0872 258.983 15.1856L259.573 14.8663H265.721L265.881 15.3453C264.362 16.5474 261.551 19.0924 260.529 20.0033L253.575 26.4176Z" fill="#50AE30"/>
<path d="M95.6589 28.5399C93.3628 41.6782 85.1999 43.3499 78.2928 43.3499C71.4794 43.3499 65.1909 38.6449 66.9715 28.4741C68.3586 20.5198 73.0726 13.1664 84.5251 13.7299C92.5193 14.1243 97.2146 19.6088 95.6589 28.5399ZM83.1661 19.4116C80.6545 19.4116 77.8054 20.6888 76.1653 28.5023C74.3378 37.1798 77.9835 37.7339 79.7454 37.7339C81.348 37.7339 84.7594 36.8605 86.4651 28.5493C87.6553 22.7267 86.7087 19.4116 83.1661 19.4116Z" fill="#006539"/>
<path d="M113.053 42.2324L112.622 42.6644C110.907 42.9837 108.901 43.256 107.814 43.256C103.775 43.256 97.8519 42.6456 100.364 32.4373C102.06 25.5347 103.269 20.3789 103.269 20.3789L99.5295 20.4822L99.2108 20.0502L100.757 14.6409L101.132 14.3779H104.665L106.212 7.46597L106.587 7.09032C110.598 6.17937 111.666 5.90703 115.359 4.83643L115.677 5.15573L113.325 14.4812L118.779 14.3779L118.995 14.7536C118.245 17.0075 118.03 17.5897 117.336 20.1066L116.905 20.4822L111.985 20.3789C111.985 20.3789 110.991 24.5393 109.586 30.3243C108.077 36.5788 108.873 36.2595 110.382 36.8606C111.675 37.3677 113.372 36.7197 114.337 36.4004L114.656 36.6634L113.053 42.2324Z" fill="#006539"/>
<path d="M132.397 16.3594C133.784 15.3921 136.089 13.7862 139.557 13.7862C144.899 13.7862 148.488 17.8057 148.488 24.6049C148.488 28.4647 147.148 33.0195 144.374 36.391C139.079 42.8709 132.397 42.824 126.727 42.824L123.681 55.6242L123.306 55.8966C122.078 55.8966 120.897 55.8402 119.67 55.8402C117.852 55.8402 116.249 55.9435 114.271 55.9999L114 55.6242C114 55.6242 115.883 49.9425 118.226 40.185C120.691 29.9392 122.987 17.9372 123.193 15.4954L123.568 15.1198L132.715 13.6172L133.034 13.9928L132.397 16.3594ZM128.067 36.8699C130.597 37.1704 133.362 36.3346 135.236 34.7851C137.373 32.9632 139.304 29.216 139.304 25.1402C139.304 20.6418 136.417 20.1065 135.349 20.1065C133.802 20.1065 132.622 20.9142 131.497 21.6561L128.067 36.8699Z" fill="#006539"/>
<path fill-rule="evenodd" clip-rule="evenodd" d="M0 26.4645C0 11.8611 11.8086 0.0187825 26.3725 0V9.56029C17.0756 9.57907 9.54058 17.139 9.54058 26.4551C9.54058 35.79 17.0943 43.35 26.4006 43.35C35.66 43.35 43.27 35.8558 43.27 26.3894L52.8106 26.3988C52.8106 41.0679 40.9833 52.9197 26.4006 52.9197C11.8273 52.9197 0 41.0773 0 26.4645Z" fill="#006539"/>
<path d="M14.7607 26.4646C14.7607 19.9847 20.009 14.7256 26.4756 14.7256C32.9422 14.7256 38.1905 19.9847 38.1905 26.4646C38.1905 32.9446 32.9422 38.2037 26.4756 38.2037C19.9996 38.2037 14.7607 32.9446 14.7607 26.4646Z" fill="#50AE30"/>
<path d="M34.5916 11.5982C34.5916 7.87922 37.6 4.87402 41.3019 4.87402C45.0132 4.87402 48.0122 7.88861 48.0122 11.5982C48.0122 15.3171 45.0038 18.3223 41.3019 18.3223C37.6 18.3223 34.5916 15.3077 34.5916 11.5982Z" fill="#006539"/>
</g>
<defs>
<clipPath id="clip0_48874_3476">
<rect width="292" height="56" fill="white"/>
</clipPath>
</defs>
</svg>
