<?xml version="1.0" standalone="no"?>
<!DOCTYPE svg PUBLIC "-//W3C//DTD SVG 20010904//EN"
 "http://www.w3.org/TR/2001/REC-SVG-20010904/DTD/svg10.dtd">
<svg version="1.0" xmlns="http://www.w3.org/2000/svg"
 width="32.000000pt" height="28.000000pt" viewBox="0 0 32.000000 28.000000"
 preserveAspectRatio="xMidYMid meet">
<metadata>
Created by potrace 1.10, written by Peter Selinger 2001-2011
</metadata>
<g transform="translate(0.000000,28.000000) scale(0.100000,-0.100000)"
fill="#000000" stroke="none">
<path d="M123 236 c-34 -15 -63 -61 -63 -98 0 -34 36 -87 67 -99 102 -39 189
90 116 171 -33 36 -76 45 -120 26z m97 -49 c0 -16 -34 -115 -43 -123 -4 -4
-11 6 -17 21 -9 25 -7 32 17 59 27 30 27 30 2 8 -17 -15 -36 -22 -53 -20 -39
5 -29 20 29 44 61 27 65 27 65 11z"/>
</g>
</svg>
