<?xml version="1.0" standalone="no"?>
<!DOCTYPE svg PUBLIC "-//W3C//DTD SVG 20010904//EN"
 "http://www.w3.org/TR/2001/REC-SVG-20010904/DTD/svg10.dtd">
<svg version="1.0" xmlns="http://www.w3.org/2000/svg"
 width="32.000000pt" height="28.000000pt" viewBox="0 0 32.000000 28.000000"
 preserveAspectRatio="xMidYMid meet">
<metadata>
Created by potrace 1.10, written by Peter Selinger 2001-2011
</metadata>
<g transform="translate(0.000000,28.000000) scale(0.100000,-0.100000)"
fill="#000000" stroke="none">
<path d="M135 210 c3 -5 14 -10 24 -10 9 0 22 -5 29 -12 9 -9 12 -8 12 6 0 16
2 16 15 6 9 -7 12 -16 7 -19 -14 -10 -2 -101 14 -101 20 0 19 89 -2 118 -12
17 -25 22 -60 22 -28 0 -43 -4 -39 -10z"/>
<path d="M89 188 c0 -2 -1 -34 -2 -73 l-2 -70 58 -3 57 -3 0 54 c0 66 -24 97
-75 97 -19 0 -35 -1 -36 -2z m86 -78 c4 -6 -8 -10 -29 -10 -20 0 -36 5 -36 10
0 6 13 10 29 10 17 0 33 -4 36 -10z m0 -30 c4 -6 -8 -10 -30 -10 -22 0 -34 4
-30 10 3 6 17 10 30 10 13 0 27 -4 30 -10z"/>
</g>
</svg>
