<?xml version="1.0" encoding="UTF-8"?>
<svg version="1.1" xmlns="http://www.w3.org/2000/svg" width="52" height="44">
<path d="M0 0 C17.16 0 34.32 0 52 0 C52 14.52 52 29.04 52 44 C34.84 44 17.68 44 0 44 C0 29.48 0 14.96 0 0 Z " fill="#FDFDFD" transform="translate(0,0)"/>
<path d="M0 0 C1.670625 0.061875 1.670625 0.061875 3.375 0.125 C3.045 1.445 2.715 2.765 2.375 4.125 C3.01308594 4.18558594 3.65117187 4.24617187 4.30859375 4.30859375 C5.13488281 4.39238281 5.96117187 4.47617188 6.8125 4.5625 C8.04806641 4.68431641 8.04806641 4.68431641 9.30859375 4.80859375 C11.375 5.125 11.375 5.125 12.375 6.125 C12.82959858 8.77963121 13.07743238 11.44689138 13.375 14.125 C15.85 14.62 15.85 14.62 18.375 15.125 C18.5 20.875 18.5 20.875 17.375 23.125 C14.735 23.125 12.095 23.125 9.375 23.125 C9.375 21.805 9.375 20.485 9.375 19.125 C7.395 19.125 5.415 19.125 3.375 19.125 C3.375 20.775 3.375 22.425 3.375 24.125 C1.065 24.125 -1.245 24.125 -3.625 24.125 C-4.97939668 21.41620665 -4.69001451 19.11566732 -4.625 16.125 C-3.635 16.125 -2.645 16.125 -1.625 16.125 C-1.625 14.145 -1.625 12.165 -1.625 10.125 C-2.945 9.795 -4.265 9.465 -5.625 9.125 C-5.75 5.75 -5.75 5.75 -5.625 2.125 C-3.625 0.125 -3.625 0.125 0 0 Z " fill="#C9CACA" transform="translate(22.625,10.875)"/>
<path d="M0 0 C0.66 0.99 1.32 1.98 2 3 C4.56282742 3.72965366 4.56282742 3.72965366 7 4 C7.125 9.75 7.125 9.75 6 12 C3.36 12 0.72 12 -2 12 C-2 10.68 -2 9.36 -2 8 C-3.32 8 -4.64 8 -6 8 C-5.67 5.69 -5.34 3.38 -5 1 C-3.35 0.67 -1.7 0.34 0 0 Z " fill="#DFDFDF" transform="translate(34,22)"/>
<path d="M0 0 C3.63 0 7.26 0 11 0 C11 1.65 11 3.3 11 5 C10 6 10 6 7.4375 6.0625 C6.2309375 6.0315625 6.2309375 6.0315625 5 6 C5 7.65 5 9.3 5 11 C3.35 11 1.7 11 0 11 C0.99 10.67 1.98 10.34 3 10 C3 9.01 3 8.02 3 7 C2.01 7 1.02 7 0 7 C0 6.01 0 5.02 0 4 C0.99 4 1.98 4 3 4 C3 3.01 3 2.02 3 1 C2.01 0.67 1.02 0.34 0 0 Z " fill="#858585" transform="translate(24,17)"/>
<path d="M0 0 C1.670625 0.061875 1.670625 0.061875 3.375 0.125 C3.375 1.115 3.375 2.105 3.375 3.125 C1.725 3.125 0.075 3.125 -1.625 3.125 C-1.625 4.775 -1.625 6.425 -1.625 8.125 C-2.945 8.125 -4.265 8.125 -5.625 8.125 C-5.75 5.25 -5.75 5.25 -5.625 2.125 C-3.625 0.125 -3.625 0.125 0 0 Z " fill="#8F9090" transform="translate(22.625,10.875)"/>
<path d="M0 0 C6.15234375 -0.09765625 6.15234375 -0.09765625 8 0 C9 1 9 1 9.0625 4.0625 C9.041875 5.031875 9.02125 6.00125 9 7 C7.68 7 6.36 7 5 7 C5 5.35 5 3.7 5 2 C3.35 2 1.7 2 0 2 C0 1.34 0 0.68 0 0 Z " fill="#AFAFB0" transform="translate(32,12)"/>
<path d="M0 0 C0.66 0 1.32 0 2 0 C2 2.31 2 4.62 2 7 C-0.64 7 -3.28 7 -6 7 C-6 6.34 -6 5.68 -6 5 C-5.38125 4.9175 -4.7625 4.835 -4.125 4.75 C-1.81562433 4.18741541 -1.81562433 4.18741541 -0.75 1.9375 C-0.5025 1.298125 -0.255 0.65875 0 0 Z " fill="#787979" transform="translate(38,27)"/>
<path d="M0 0 C1.24546405 2.49092811 0.7767578 3.41080733 0 6 C-1.98 6.33 -3.96 6.66 -6 7 C-5.67 5.02 -5.34 3.04 -5 1 C-3.35 0.67 -1.7 0.34 0 0 Z " fill="#C7C7C7" transform="translate(34,22)"/>
<path d="M0 0 C0.66 0 1.32 0 2 0 C2.33 1.32 2.66 2.64 3 4 C4.32 4.33 5.64 4.66 7 5 C7 5.66 7 6.32 7 7 C5.00045254 7.04254356 2.99958364 7.04080783 1 7 C0 6 0 6 -0.0625 2.9375 C-0.041875 1.968125 -0.02125 0.99875 0 0 Z " fill="#6B6C6D" transform="translate(18,27)"/>
<path d="M0 0 C1.32 0.33 2.64 0.66 4 1 C4.33 2.65 4.66 4.3 5 6 C3.35 6 1.7 6 0 6 C0 4.02 0 2.04 0 0 Z " fill="#A2A2A3" transform="translate(23,23)"/>
<path d="M0 0 C1.99954746 -0.04254356 4.00041636 -0.04080783 6 0 C7 1 7 1 7.0625 3.5625 C7.041875 4.366875 7.02125 5.17125 7 6 C6.34 5.01 5.68 4.02 5 3 C2.43717258 2.27034634 2.43717258 2.27034634 0 2 C0 1.34 0 0.68 0 0 Z " fill="#5F6060" transform="translate(32,12)"/>
<path d="M0 0 C1.32 0 2.64 0 4 0 C3.67 2.97 3.34 5.94 3 9 C2.67 9 2.34 9 2 9 C1.855625 7.88625 1.71125 6.7725 1.5625 5.625 C1.21627965 2.17857953 1.21627965 2.17857953 0 0 Z " fill="#E5E5E5" transform="translate(33,14)"/>
</svg>
