<?xml version="1.0" encoding="UTF-8"?>
<svg version="1.1" xmlns="http://www.w3.org/2000/svg" width="164" height="174">
<path d="M0 0 C54.12 0 108.24 0 164 0 C164 57.42 164 114.84 164 174 C109.88 174 55.76 174 0 174 C0 116.58 0 59.16 0 0 Z " fill="#1C82E3" transform="translate(0,0)"/>
<path d="M0 0 C54.12 0 108.24 0 164 0 C164 57.42 164 114.84 164 174 C109.88 174 55.76 174 0 174 C0 116.58 0 59.16 0 0 Z M24 39 C23.32195313 39.67933594 22.64390625 40.35867187 21.9453125 41.05859375 C8.44553566 55.48835522 3.34861614 74.20638036 3.65625 93.5078125 C4.39718253 110.97529683 11.43160434 127.04425062 23 140 C23.67804687 140.77214844 24.35609375 141.54429687 25.0546875 142.33984375 C30.90473754 148.6077545 37.56181433 152.81363653 45 157 C45.67546875 157.41121094 46.3509375 157.82242188 47.046875 158.24609375 C62.07953639 166.79342556 81.34838948 167.03145177 97.72827148 162.97973633 C109.20959024 159.76807557 120.17451406 154.03565646 129 146 C129.74507813 145.33484375 130.49015625 144.6696875 131.2578125 143.984375 C145.45019375 130.60985978 153.70894168 112.66564048 154.4050293 93.17919922 C154.67920286 72.66771821 148.27485781 53.08816012 134 38 C119.4059087 23.25545415 99.38460074 14.91807911 78.75 14.625 C56.7169676 14.55170925 39.23318374 23.56219141 24 39 Z " fill="#FDFEFE" transform="translate(0,0)"/>
<path d="M0 0 C4.91504114 3.90131391 7.60125874 7.8660463 8.50390625 14.2265625 C8.61555421 21.3943618 8.56009405 26.86726352 4.0546875 32.64453125 C1.63659892 35.03503707 -0.97236494 37.00542752 -3.6875 39.05078125 C-9.55705491 43.55847199 -10.80898364 47.58036461 -12 54.67578125 C-13 55.67578125 -13 55.67578125 -15.94140625 55.7734375 C-17.13636719 55.76183594 -18.33132812 55.75023437 -19.5625 55.73828125 C-21.35880859 55.72474609 -21.35880859 55.72474609 -23.19140625 55.7109375 C-24.11824219 55.69933594 -25.04507813 55.68773437 -26 55.67578125 C-27.45181892 49.09499548 -28.62566635 42.40270546 -25.0625 36.42578125 C-21.99967765 33.38936254 -18.46423794 30.83030814 -14.98828125 28.2890625 C-12.56599601 26.32363263 -11.16620434 24.64151592 -10.62890625 21.51953125 C-10.5619243 19.15546228 -10.58764798 17.00665529 -11 14.67578125 C-13.8550672 11.7314932 -15.86743198 11.68840678 -19.9375 11.30078125 C-23.87838293 11.43386923 -26.51221846 12.85606914 -30 14.67578125 C-33 15.36328125 -33 15.36328125 -36 14.67578125 C-38.34277727 12.22067905 -40.19528562 9.54284524 -42 6.67578125 C-40.94339216 3.66901451 -40.07481132 2.72234748 -37.3203125 1.0078125 C-35.73863281 0.25564453 -35.73863281 0.25564453 -34.125 -0.51171875 C-33.07570313 -1.02089844 -32.02640625 -1.53007813 -30.9453125 -2.0546875 C-21.27049301 -6.22486831 -8.90481885 -5.89596405 0 0 Z " fill="#FAFCFE" transform="translate(99,49.32421875)"/>
<path d="M0 0 C2.69105198 2.17574416 4.45532928 3.91065856 6 7 C6.2262475 12.0069555 5.69507747 15.16929766 2.4375 19.0625 C-2.03699068 21.58448566 -3.93088294 21.72415958 -9 21 C-12.06048212 19.20363006 -13.57072503 17.72196245 -15.375 14.6875 C-16.21035917 11.09545559 -15.90807553 8.56743957 -15 5 C-11.10051979 0.0606584 -6.14211004 -1.10150901 0 0 Z " fill="#F8FBFE" transform="translate(84,117)"/>
</svg>
