<?xml version="1.0" standalone="no"?>
<!DOCTYPE svg PUBLIC "-//W3C//DTD SVG 20010904//EN"
 "http://www.w3.org/TR/2001/REC-SVG-20010904/DTD/svg10.dtd">
<svg version="1.0" xmlns="http://www.w3.org/2000/svg"
 width="30.000000pt" height="31.000000pt" viewBox="0 0 30.000000 31.000000"
 preserveAspectRatio="xMidYMid meet">
<metadata>
Created by potrace 1.10, written by Peter Selinger 2001-2011
</metadata>
<g transform="translate(0.000000,31.000000) scale(0.100000,-0.100000)"
fill="#000000" stroke="none">
<path d="M118 234 c-27 -13 -48 -29 -48 -34 0 -6 43 -10 106 -10 69 0 103 4
99 10 -6 9 -99 61 -107 60 -2 -1 -24 -12 -50 -26z"/>
<path d="M96 163 c-3 -3 -6 -21 -6 -40 0 -23 5 -33 15 -33 10 0 15 10 15 34 0
34 -11 52 -24 39z"/>
<path d="M154 146 c-8 -32 2 -59 19 -53 16 5 16 69 0 74 -7 3 -15 -7 -19 -21z"/>
<path d="M226 163 c-3 -3 -6 -21 -6 -40 0 -23 5 -33 15 -33 10 0 15 10 15 34
0 34 -11 52 -24 39z"/>
<path d="M70 55 c0 -13 15 -15 100 -13 134 4 135 22 3 26 -88 2 -103 0 -103
-13z"/>
</g>
</svg>
