<?xml version="1.0" standalone="no"?>
<!DOCTYPE svg PUBLIC "-//W3C//DTD SVG 20010904//EN"
 "http://www.w3.org/TR/2001/REC-SVG-20010904/DTD/svg10.dtd">
<svg version="1.0" xmlns="http://www.w3.org/2000/svg"
 width="33.000000pt" height="32.000000pt" viewBox="0 0 33.000000 32.000000"
 preserveAspectRatio="xMidYMid meet">
<metadata>
Created by potrace 1.10, written by Peter Selinger 2001-2011
</metadata>
<g transform="translate(0.000000,32.000000) scale(0.100000,-0.100000)"
fill="#000000" stroke="none">
<path d="M111 266 c-58 -32 -69 -119 -22 -167 24 -24 38 -29 76 -29 38 0 52 5
76 29 65 65 21 181 -68 181 -21 -1 -49 -7 -62 -14z m69 -56 c0 -13 7 -20 20
-20 11 0 20 -7 20 -15 0 -8 -9 -15 -20 -15 -13 0 -20 -7 -20 -20 0 -12 -7 -20
-16 -20 -11 0 -15 6 -11 20 4 16 0 20 -19 20 -15 0 -24 6 -24 15 0 9 9 15 24
15 19 0 23 4 19 20 -4 14 0 20 11 20 9 0 16 -8 16 -20z"/>
</g>
</svg>
