<?xml version="1.0" encoding="UTF-8"?>
<svg version="1.1" xmlns="http://www.w3.org/2000/svg" width="231" height="233">
<path d="M0 0 C76.23 0 152.46 0 231 0 C231 76.89 231 153.78 231 233 C154.77 233 78.54 233 0 233 C0 156.11 0 79.22 0 0 Z " fill="#F5F6F9" transform="translate(0,0)"/>
<path d="M0 0 C0.7139946 -0.00570007 1.4279892 -0.01140015 2.16362 -0.01727295 C3.67408777 -0.02671151 5.18457602 -0.03325239 6.69506836 -0.03710938 C8.99304661 -0.04679629 11.29012289 -0.07782106 13.58789062 -0.109375 C15.05858846 -0.11590756 16.52929267 -0.12115704 18 -0.125 C18.68145584 -0.1373468 19.36291168 -0.1496936 20.0650177 -0.16241455 C24.6809164 -0.14112057 27.84472498 0.65084856 31.69921875 3.203125 C34.75831325 7.23767674 35.07785221 10.28384672 35.08740234 15.28491211 C35.0926593 15.97826157 35.09791626 16.67161102 35.10333252 17.38597107 C35.11648762 19.66770254 35.10780994 21.94873072 35.09765625 24.23046875 C35.09967852 25.82320794 35.10259123 27.41594622 35.10635376 29.00868225 C35.11077121 32.34336175 35.10436573 35.67779979 35.09033203 39.01245117 C35.07325423 43.27732831 35.0830758 47.54163844 35.10104942 51.80649471 C35.1119149 55.0948561 35.10842805 58.38308415 35.10066605 61.67144966 C35.09867095 63.2434553 35.10109899 64.81547322 35.10810471 66.38746452 C35.11576347 68.58928126 35.10405387 70.7901936 35.08740234 72.99194336 C35.08501556 74.24261093 35.08262878 75.4932785 35.08016968 76.78184509 C34.65774327 80.5756119 33.70839558 82.97259383 31.69921875 86.203125 C27.87717533 88.75115395 24.70532676 88.54448522 20.26953125 88.57421875 C19.44218475 88.58324722 18.61483826 88.5922757 17.76242065 88.60157776 C16.01238626 88.61608115 14.26229763 88.62496722 12.51220703 88.62866211 C9.84053705 88.64055238 7.17118202 88.6897278 4.5 88.74023438 C2.79818834 88.74969968 1.09636251 88.7569342 -0.60546875 88.76171875 C-1.40145477 88.78125107 -2.1974408 88.80078339 -3.01754761 88.82090759 C-7.25226168 88.78662427 -8.8362856 88.56890106 -12.28173828 85.85571289 C-15.48785378 81.64356719 -15.4414169 78.42342136 -15.49365234 73.2565918 C-15.50182983 72.55378082 -15.51000732 71.85096985 -15.51843262 71.12686157 C-15.5432358 68.80203088 -15.55978922 66.47726102 -15.57421875 64.15234375 C-15.57954243 63.35720682 -15.5848661 62.56206989 -15.5903511 61.74283791 C-15.61706022 57.53437897 -15.63644251 53.32594946 -15.65087891 49.11743164 C-15.66422004 45.63799766 -15.6920781 42.15914988 -15.73291016 38.67993164 C-15.78225795 34.47482269 -15.80700222 30.27024554 -15.81410599 26.06485939 C-15.82081275 24.4648845 -15.83602005 22.86492121 -15.8599968 21.26511192 C-15.89169695 19.02206245 -15.89167933 16.7810574 -15.88427734 14.5378418 C-15.89640762 12.62614449 -15.89640762 12.62614449 -15.90878296 10.67582703 C-15.10114268 6.0628564 -13.61945416 4.46302231 -10.30078125 1.203125 C-6.80718148 0.03859174 -3.63655516 0.02247894 0 0 Z " fill="#1E1F20" transform="translate(112.30078125,52.796875)"/>
<path d="M0 0 C11.22 0 22.44 0 34 0 C34 18.15 34 36.3 34 55 C22.78 55 11.56 55 0 55 C0 36.85 0 18.7 0 0 Z " fill="#F6F7FA" transform="translate(105,66)"/>
<path d="M0 0 C76.23 0 152.46 0 231 0 C231 1.32 231 2.64 231 4 C154.77 4 78.54 4 0 4 C0 2.68 0 1.36 0 0 Z " fill="#FFFFFF" transform="translate(0,0)"/>
<path d="M0 0 C3.3 0 6.6 0 10 0 C13.09501736 6.84161733 15.51548874 13.91963393 18 21 C18.50660156 19.22882813 18.50660156 19.22882813 19.0234375 17.421875 C19.47375566 15.86452471 19.92428771 14.30723627 20.375 12.75 C20.70757812 11.58404297 20.70757812 11.58404297 21.046875 10.39453125 C21.26601562 9.64042969 21.48515625 8.88632813 21.7109375 8.109375 C21.90993652 7.41811523 22.10893555 6.72685547 22.31396484 6.01464844 C23 4 23 4 25 0 C28.3 0 31.6 0 35 0 C35 10.89 35 21.78 35 33 C32.69 33 30.38 33 28 33 C27.67 27.39 27.34 21.78 27 16 C24.68702184 21.62824686 22.53573163 27.11302876 21 33 C19.02 33 17.04 33 15 33 C13.02 27.72 11.04 22.44 9 17 C8.67 22.28 8.34 27.56 8 33 C5.36 33 2.72 33 0 33 C0 22.11 0 11.22 0 0 Z " fill="#1E1F20" transform="translate(105,154)"/>
<path d="M0 0 C3.8026029 2.0050088 5.61790841 3.42686262 8 7 C8 7.99 8 8.98 8 10 C6.72125 10.061875 5.4425 10.12375 4.125 10.1875 C3.40570313 10.22230469 2.68640625 10.25710937 1.9453125 10.29296875 C1.30335938 10.19628906 0.66140625 10.09960938 0 10 C-0.66 9.01 -1.32 8.02 -2 7 C-4.58380177 6.74969023 -4.58380177 6.74969023 -7 7 C-7.66 8.32 -8.32 9.64 -9 11 C-8.360625 11.2475 -7.72125 11.495 -7.0625 11.75 C-6.051875 12.1625 -5.04125 12.575 -4 13 C-2.89591797 13.43699219 -2.89591797 13.43699219 -1.76953125 13.8828125 C6.40064466 17.26817087 6.40064466 17.26817087 8 21 C8.5625 24.4375 8.5625 24.4375 8 28 C5.87045067 30.85968053 5.16602722 31.71770224 2 33 C-3.69012397 33.81287485 -8.92197466 34.4045379 -13.8203125 31.09375 C-15.91297005 29.08359867 -17.03725066 27.71320267 -18 25 C-18 24.01 -18 23.02 -18 22 C-15.36 22 -12.72 22 -10 22 C-9.34 23.32 -8.68 24.64 -8 26 C-5.69 26 -3.38 26 -1 26 C-0.67 24.68 -0.34 23.36 0 22 C-0.85271484 21.77957031 -0.85271484 21.77957031 -1.72265625 21.5546875 C-7.51558517 19.87193352 -12.10437253 17.73450891 -16 13 C-17.1875 9.9375 -17.1875 9.9375 -17 7 C-12.86724985 0.26514791 -7.50930222 -1.08019425 0 0 Z " fill="#202122" transform="translate(161,154)"/>
<path d="M0 0 C3.39423918 1.23426879 5.32410703 2.01688296 7.375 5 C8 7 8 7 8 10 C6.72125 10.061875 5.4425 10.12375 4.125 10.1875 C3.40570313 10.22230469 2.68640625 10.25710937 1.9453125 10.29296875 C1.30335937 10.19628906 0.66140625 10.09960938 0 10 C-0.66 9.01 -1.32 8.02 -2 7 C-4.58380177 6.74969023 -4.58380177 6.74969023 -7 7 C-7.66 8.32 -8.32 9.64 -9 11 C-8.175 11.2475 -7.35 11.495 -6.5 11.75 C-1.61613033 13.49423917 3.11970062 15.29597869 7 18.8125 C8.52913127 22.15747465 8.57291516 24.37153729 8 28 C5.16802328 31.80294017 3.55943105 32.75963657 -1.1171875 33.48046875 C-9.54285452 33.83392644 -9.54285452 33.83392644 -12.91796875 31.90234375 C-14.25 30.5625 -14.25 30.5625 -16 28 C-16.33 27.67 -16.66 27.34 -17 27 C-17.04063832 25.33382885 -17.042721 23.66611905 -17 22 C-14.69 22 -12.38 22 -10 22 C-9.34 23.32 -8.68 24.64 -8 26 C-5.69 26 -3.38 26 -1 26 C-0.67 24.68 -0.34 23.36 0 22 C-0.58007812 21.82984375 -1.16015625 21.6596875 -1.7578125 21.484375 C-6.79617028 19.92132011 -10.82048055 18.23912757 -15 15 C-16.60243984 11.79512031 -16.63159396 8.46690163 -16 5 C-11.07379781 -0.05583909 -6.77569637 -0.6377126 0 0 Z " fill="#202122" transform="translate(94,154)"/>
<path d="M0 0 C2 2 2 2 2.25 5.5 C2 9 2 9 0 11 C-3.13704316 11.333728 -5.16554166 11.52849028 -7.875 9.8125 C-9.40659584 7.34492892 -9.42822025 5.85480169 -9 3 C-6.73157826 -0.65467947 -4.03373275 -0.4291205 0 0 Z " fill="#EDEEF1" transform="translate(125,126)"/>
</svg>
