<?xml version="1.0" encoding="UTF-8"?>
<svg version="1.1" xmlns="http://www.w3.org/2000/svg" width="44" height="63">
<path d="M0 0 C14.52 0 29.04 0 44 0 C44 20.79 44 41.58 44 63 C29.48 63 14.96 63 0 63 C0 42.21 0 21.42 0 0 Z " fill="#F4F5F8" transform="translate(0,0)"/>
<path d="M0 0 C14.52 0 29.04 0 44 0 C44 1.98 44 3.96 44 6 C29.48 6 14.96 6 0 6 C0 4.02 0 2.04 0 0 Z " fill="#FFFFFF" transform="translate(0,0)"/>
<path d="M0 0 C1.37478516 0.01740234 1.37478516 0.01740234 2.77734375 0.03515625 C3.69644531 0.04417969 4.61554687 0.05320312 5.5625 0.0625 C6.27277344 0.07410156 6.98304687 0.08570312 7.71484375 0.09765625 C7.74372889 3.24347048 7.76160298 6.38925094 7.77734375 9.53515625 C7.78572266 10.43298828 7.79410156 11.33082031 7.80273438 12.25585938 C7.80595703 13.10986328 7.80917969 13.96386719 7.8125 14.84375 C7.81773682 15.63450928 7.82297363 16.42526855 7.82836914 17.23999023 C7.71484375 19.09765625 7.71484375 19.09765625 6.71484375 20.09765625 C-0.80754431 20.33646222 -0.80754431 20.33646222 -3.28515625 19.09765625 C-3.31199612 16.11843032 -3.33191662 13.1394433 -3.34765625 10.16015625 C-3.35603516 9.31001953 -3.36441406 8.45988281 -3.37304688 7.58398438 C-3.37626953 6.77509766 -3.37949219 5.96621094 -3.3828125 5.1328125 C-3.38804932 4.38394775 -3.39328613 3.63508301 -3.39868164 2.86352539 C-3.22295389 0.13010851 -2.72767288 0.11656722 0 0 Z " fill="#4B4C4D" transform="translate(18.28515625,16.90234375)"/>
<path d="M0 0 C14.52 0 29.04 0 44 0 C44 1.32 44 2.64 44 4 C29.48 4 14.96 4 0 4 C0 2.68 0 1.36 0 0 Z " fill="#FFFFFF" transform="translate(0,59)"/>
<path d="M0 0 C2.31 0 4.62 0 7 0 C7 3.96 7 7.92 7 12 C4.69 12 2.38 12 0 12 C0 8.04 0 4.08 0 0 Z " fill="#F6F7FA" transform="translate(17,20)"/>
<path d="M0 0 C1.98 0.99 1.98 0.99 4 2 C4.33 1.34 4.66 0.68 5 0 C7.64 0.33 10.28 0.66 13 1 C13 3.33333333 13 5.66666667 13 8 C11.68 7.67 10.36 7.34 9 7 C9 6.01 9 5.02 9 4 C8.67 5.32 8.34 6.64 8 8 C5.36 8 2.72 8 0 8 C0 5.36 0 2.72 0 0 Z " fill="#5F6061" transform="translate(17,39)"/>
<path d="M0 0 C0.33 0 0.66 0 1 0 C1 4.62 1 9.24 1 14 C3.64 14 6.28 14 9 14 C8.01 14.495 8.01 14.495 7 15 C7 15.99 7 16.98 7 18 C7.99 18.33 8.98 18.66 10 19 C2.25 19.125 2.25 19.125 0 18 C0 12.06 0 6.12 0 0 Z " fill="#4C4D4F" transform="translate(15,18)"/>
<path d="M0 0 C1.98 0.495 1.98 0.495 4 1 C3.67 1.66 3.34 2.32 3 3 C3.39938767 5.09821215 3.39938767 5.09821215 4 7 C2.68 7.33 1.36 7.66 0 8 C-0.33 7.34 -0.66 6.68 -1 6 C-0.34 5.67 0.32 5.34 1 5 C0.34 4.67 -0.32 4.34 -1 4 C-0.67 2.68 -0.34 1.36 0 0 Z " fill="#48494A" transform="translate(12,39)"/>
<path d="M0 0 C0.33 0 0.66 0 1 0 C1 5.61 1 11.22 1 17 C-0.32 17 -1.64 17 -3 17 C-3 16.01 -3 15.02 -3 14 C-2.34 13.67 -1.68 13.34 -1 13 C-0.53045739 9.95418731 -0.53045739 9.95418731 -0.375 6.4375 C-0.30023437 5.23996094 -0.22546875 4.04242188 -0.1484375 2.80859375 C-0.09945313 1.88175781 -0.05046875 0.95492188 0 0 Z " fill="#1A1B1C" transform="translate(25,19)"/>
<path d="M0 0 C1.32 0.33 2.64 0.66 4 1 C4 3 4 5 4 7 C2.68 6.67 1.36 6.34 0 6 C0 4 0 2 0 0 Z " fill="#3E3F40" transform="translate(26,40)"/>
<path d="M0 0 C0.99 0 1.98 0 3 0 C4.09658936 3.28976808 3.79953138 4.71303767 3 8 C2.34 8 1.68 8 1 8 C0.67 5.36 0.34 2.72 0 0 Z " fill="#545556" transform="translate(22,39)"/>
</svg>
