<?xml version="1.0" standalone="no"?>
<!DOCTYPE svg PUBLIC "-//W3C//DTD SVG 20010904//EN"
 "http://www.w3.org/TR/2001/REC-SVG-20010904/DTD/svg10.dtd">
<svg version="1.0" xmlns="http://www.w3.org/2000/svg"
 width="29.000000pt" height="30.000000pt" viewBox="0 0 29.000000 30.000000"
 preserveAspectRatio="xMidYMid meet">
<metadata>
Created by potrace 1.10, written by Peter Selinger 2001-2011
</metadata>
<g transform="translate(0.000000,30.000000) scale(0.100000,-0.100000)"
fill="#000000" stroke="none">
<path d="M50 170 c0 -78 1 -80 24 -80 13 0 26 7 30 15 3 9 0 15 -9 15 -8 0
-15 5 -15 10 0 6 11 10 25 10 14 0 25 5 25 10 0 6 -11 10 -25 10 -14 0 -25 5
-25 10 0 6 13 10 29 10 17 0 33 5 36 10 4 6 -8 10 -29 10 -20 0 -36 5 -36 10
0 19 76 11 104 -11 l27 -22 -3 34 -3 34 -77 3 -78 3 0 -81z"/>
<path d="M157 183 c-15 -14 -7 -43 12 -43 26 0 36 17 21 35 -14 16 -23 19 -33
8z"/>
<path d="M127 113 c-4 -3 -7 -15 -7 -25 0 -15 8 -18 48 -18 55 0 62 4 55 31
-6 20 -43 27 -43 7 0 -9 -3 -9 -12 0 -13 13 -31 16 -41 5z"/>
</g>
</svg>
