<?xml version="1.0" standalone="no"?>
<!DOCTYPE svg PUBLIC "-//W3C//DTD SVG 20010904//EN"
 "http://www.w3.org/TR/2001/REC-SVG-20010904/DTD/svg10.dtd">
<svg version="1.0" xmlns="http://www.w3.org/2000/svg"
 width="31.000000pt" height="26.000000pt" viewBox="0 0 31.000000 26.000000"
 preserveAspectRatio="xMidYMid meet">

<g transform="translate(0.000000,26.000000) scale(0.100000,-0.100000)"
fill="#000000" stroke="none">
<path d="M55 171 c-20 -30 -26 -49 -23 -82 l3 -44 110 0 110 0 3 48 c3 40 -2
55 -23 83 -25 32 -29 34 -90 34 -64 0 -65 0 -90 -39z m164 3 c25 -32 20 -44
-19 -44 -15 0 -30 -7 -34 -15 -7 -19 -35 -19 -42 0 -4 8 -19 15 -34 15 -40 0
-44 13 -15 44 20 21 33 26 74 26 42 0 53 -4 70 -26z"/>
<path d="M128 173 c12 -2 32 -2 45 0 12 2 2 4 -23 4 -25 0 -35 -2 -22 -4z"/>
<path d="M118 153 c18 -2 45 -2 60 0 15 2 0 4 -33 4 -33 0 -45 -2 -27 -4z"/>
</g>
</svg>
