<?xml version="1.0" standalone="no"?>
<!DOCTYPE svg PUBLIC "-//W3C//DTD SVG 20010904//EN"
 "http://www.w3.org/TR/2001/REC-SVG-20010904/DTD/svg10.dtd">
<svg version="1.0" xmlns="http://www.w3.org/2000/svg"
 width="36.000000pt" height="31.000000pt" viewBox="0 0 36.000000 31.000000"
 preserveAspectRatio="xMidYMid meet">

<g transform="translate(0.000000,31.000000) scale(0.100000,-0.100000)"
fill="#000000" stroke="none">
<path d="M128 239 c-23 -9 -28 -17 -28 -43 0 -46 19 -95 40 -106 26 -14 27
-13 22 20 -6 39 21 70 60 70 23 0 28 4 28 24 0 14 -4 27 -8 30 -19 12 -89 15
-114 5z"/>
<path d="M190 145 c-26 -32 13 -81 48 -59 9 6 18 19 20 28 8 38 -43 61 -68 31z
m40 -15 c0 -5 -4 -10 -10 -10 -5 0 -10 5 -10 10 0 6 5 10 10 10 6 0 10 -4 10
-10z m2 -32 c-9 -9 -15 -9 -24 0 -9 9 -7 12 12 12 19 0 21 -3 12 -12z"/>
</g>
</svg>
