<?xml version="1.0" encoding="UTF-8"?>
<svg version="1.1" xmlns="http://www.w3.org/2000/svg" width="46" height="43">
<path d="M0 0 C15.18 0 30.36 0 46 0 C46 14.19 46 28.38 46 43 C30.82 43 15.64 43 0 43 C0 28.81 0 14.62 0 0 Z " fill="#F2F3F6" transform="translate(0,0)"/>
<path d="M0 0 C2.31 0 4.62 0 7 0 C8.9375 2 8.9375 2 10 4 C12.46800047 2.84826645 14.04783565 1.95216435 16 0 C19.125 -0.125 19.125 -0.125 22 0 C22 1.98 22 3.96 22 6 C21.0925 6.226875 20.185 6.45375 19.25 6.6875 C15.5332207 8.18850702 14.33489065 9.83121983 12 13 C11.34 13 10.68 13 10 13 C8.68 11.35 7.36 9.7 6 8 C5.67 12.29 5.34 16.58 5 21 C3.35 21 1.7 21 0 21 C0 14.07 0 7.14 0 0 Z " fill="#242526" transform="translate(10,12)"/>
<path d="M0 0 C1.66611905 -0.042721 3.33382885 -0.04063832 5 0 C6 1 6 1 6.08984375 3.29296875 C5.62761407 12.0753327 5.62761407 12.0753327 2.1875 15.75 C-1 18 -1 18 -2.9921875 17.81640625 C-5.24360653 16.90094598 -6.58026263 15.88535052 -8.3125 14.1875 C-8.84488281 13.68605469 -9.37726562 13.18460938 -9.92578125 12.66796875 C-11 11 -11 11 -10.796875 8.97265625 C-9.68606959 6.22286835 -7.92295739 4.23311181 -6 2 C-2.04179141 2.56545837 0.6659053 3.80902348 4 6 C4 5.01 4 4.02 4 3 C2.68 2.67 1.36 2.34 0 2 C0 1.34 0 0.68 0 0 Z " fill="#2E2F30" transform="translate(30,21)"/>
<path d="M0 0 C3.78903708 0.25260247 5.54186593 2.27849443 8 5 C6.52307692 9.67692308 6.52307692 9.67692308 3.875 11.3125 C2.946875 11.6528125 2.946875 11.6528125 2 12 C0.02 10.02 -1.96 8.04 -4 6 C-2.84826645 3.53199953 -1.95216435 1.95216435 0 0 Z " fill="#D8D9DC" transform="translate(25,25)"/>
<path d="M0 0 C0.10183594 0.58265625 0.20367188 1.1653125 0.30859375 1.765625 C1.11517153 4.37219275 2.24157009 5.73535414 4.0625 7.75 C4.61035156 8.36359375 5.15820312 8.9771875 5.72265625 9.609375 C6.14417969 10.06828125 6.56570312 10.5271875 7 11 C3.51876869 11 3.13479364 10.58848696 0.75 8.25 C0.20859375 7.73953125 -0.3328125 7.2290625 -0.890625 6.703125 C-2 5 -2 5 -1.734375 2.859375 C-1 1 -1 1 0 0 Z " fill="#3E3F40" transform="translate(21,27)"/>
<path d="M0 0 C1.66611905 -0.042721 3.33382885 -0.04063832 5 0 C6 1 6 1 6.1875 3.9375 C6 7 6 7 4 9 C4 7.02 4 5.04 4 3 C2.68 2.67 1.36 2.34 0 2 C0 1.34 0 0.68 0 0 Z " fill="#353637" transform="translate(30,21)"/>
</svg>
